<?xml version="1.0" standalone="no"?>
<!DOCTYPE svg PUBLIC "-//W3C//DTD SVG 20010904//EN"
 "http://www.w3.org/TR/2001/REC-SVG-20010904/DTD/svg10.dtd">
<svg version="1.0" xmlns="http://www.w3.org/2000/svg"
 width="100%" height="100" viewBox="0 0 671.000000 267.000000"
 preserveAspectRatio="xMidYMid meet">

<g transform="translate(0.000000,267.000000) scale(0.100000,-0.100000)"
fill="#000000" stroke="none">
<path d="M14 2625 c-19 -29 -15 -122 6 -135 6 -4 69 -9 139 -12 173 -6 209
-27 231 -133 15 -69 24 -1453 12 -1772 -8 -235 -11 -254 -33 -300 -35 -70 -71
-85 -225 -92 -67 -3 -126 -9 -130 -13 -4 -4 -9 -30 -12 -58 -3 -36 0 -57 12
-75 l16 -25 1099 0 c999 0 1100 1 1112 16 10 13 15 105 22 400 5 210 7 390 3
399 -5 13 -19 15 -78 13 l-72 -3 -46 -135 c-57 -169 -106 -268 -169 -345 -122
-149 -213 -175 -604 -175 -325 0 -380 13 -422 96 -19 38 -20 62 -23 926 -3
925 3 1138 34 1203 27 58 62 68 244 73 85 2 161 9 168 14 7 6 12 35 12 74 0
52 -3 65 -19 74 -13 6 -232 10 -640 10 l-621 0 -16 -25z"/>
<path d="M1578 2639 c-14 -8 -18 -24 -18 -73 0 -39 5 -67 13 -73 6 -6 43 -13
81 -16 156 -14 134 14 698 -910 l328 -539 0 -315 c0 -368 -7 -432 -54 -479
-37 -37 -103 -54 -209 -54 -44 0 -78 -5 -85 -12 -7 -7 -12 -39 -12 -75 0 -51
3 -64 19 -73 13 -6 210 -10 570 -10 486 0 551 2 565 16 21 20 22 117 2 137
-10 9 -48 16 -115 20 -220 12 -230 35 -231 561 l0 308 316 527 c405 673 473
771 588 840 55 33 57 33 76 16 45 -41 45 -46 45 -1105 l0 -1005 -22 -47 c-32
-70 -77 -89 -226 -97 -134 -7 -137 -8 -137 -88 0 -89 -47 -83 611 -83 381 0
587 4 600 10 16 9 19 22 19 74 0 39 -5 67 -12 74 -7 5 -65 12 -129 14 -97 4
-123 9 -157 28 -83 47 -92 107 -92 673 l0 407 625 0 625 0 0 -447 c0 -247 -5
-475 -10 -508 -19 -118 -65 -146 -251 -154 -70 -3 -131 -9 -135 -13 -4 -4 -9
-30 -12 -58 -3 -36 0 -57 12 -75 l16 -25 595 0 595 0 16 25 c12 18 15 39 12
75 -3 28 -8 54 -12 58 -4 4 -58 10 -121 13 -176 10 -226 46 -242 177 -4 37 -8
486 -8 997 0 1000 1 1015 51 1074 30 36 91 51 212 51 48 0 93 4 101 9 22 14
27 106 7 136 l-16 25 -595 0 -595 0 -16 -25 c-19 -29 -15 -122 6 -135 6 -4 71
-9 144 -12 159 -5 195 -19 223 -81 16 -38 18 -82 21 -469 l3 -428 -625 0 -626
0 0 348 c0 363 10 513 35 562 26 50 65 63 205 68 69 2 131 9 138 14 7 7 12 35
12 74 0 52 -3 65 -19 74 -13 7 -285 10 -811 10 -526 0 -798 -3 -811 -10 -16
-9 -19 -22 -19 -74 0 -39 5 -67 13 -73 6 -6 44 -13 84 -16 94 -7 144 -34 179
-93 53 -90 39 -124 -316 -721 -183 -308 -248 -409 -256 -400 -18 19 -590 969
-623 1036 -17 33 -31 76 -31 95 0 31 5 36 46 56 31 15 71 24 129 28 47 2 89
10 94 16 16 21 19 114 4 136 -14 20 -24 20 -541 20 -339 0 -533 -4 -544 -11z"/>
</g>
</svg>
